ffmpeg -i /Users/ashley/Desktop/pres_metadata_sample_20110609.mkv

ffmpeg version 2.4.2 Copyright (c) 2000-2014 the FFmpeg developers
  built on Nov  6 2014 18:40:32 with Apple LLVM version 5.1 (clang-503.0.40) (based on LLVM 3.4svn)
  configuration: --prefix=/usr/local/Cellar/ffmpeg/2.4.2 --enable-shared --enable-pthreads --enable-gpl --enable-version3 --enable-nonfree --enable-hardcoded-tables --enable-avresample --enable-vda --cc=clang --host-cflags= --host-ldflags= --enable-libx264 --enable-libfaac --enable-libmp3lame --enable-libxvid --enable-ffplay
  libavutil      54.  7.100 / 54.  7.100
  libavcodec     56.  1.100 / 56.  1.100
  libavformat    56.  4.101 / 56.  4.101
  libavdevice    56.  0.100 / 56.  0.100
  libavfilter     5.  1.100 /  5.  1.100
  libavresample   2.  1.  0 /  2.  1.  0
  libswscale      3.  0.100 /  3.  0.100
  libswresample   1.  1.100 /  1.  1.100
  libpostproc    53.  0.100 / 53.  0.100
Guessed Channel Layout for  Input Stream #0.1 : mono
Input #0, matroska,webm, from '/Users/ashley/Desktop/pres_metadata_sample_20110609.mkv':
  Metadata:
    MINOR_VERSION   : 537199360
    COMPATIBLE_BRANDS: qt  
    ORIGINAL_MEDIA_TYPE: {Physical format of the source tape. Vocabulary?}
    ORIGINAL_MEDIA_TYPE/BARCODE: {Barcode or other identifier from the tape.}
    ORIGINAL_MEDIA_TYPE/BARCODE/SOURCE: {name of barcode authority or creator; example "XYZ Archive Barcode"}
    ORIGINAL_MEDIA_TYPE/LABEL: {The record label or imprint on the source media object.}
    ORIGINAL_MEDIA_TYPE/DATE_RECORDED: {The time that the recording began. This is akin to the TDRC tag in ID3.}
    ORIGINAL_MEDIA_TYPE/CONDITION: {Comments on the condition of the source, any preparation for playback of the source tape (if relevant).}
    ORIGINAL_MEDIA_TYPE/INITIAL_SOURCE_TIMECODE: 01:02:15;10
    ORIGINAL_MEDIA_TYPE/INITIAL_SOURCE_TIMECODE/SETTINGS: DropFrame=Yes / 24HourMax=No / IsVisual=No
    DATE_DIGITIZED  : {Date and time of the file creation process. Enter in ISO 8601 format.}
    ENCODED_BY      : {Name of the technician or organization responsible for the encoding and file creation process}
    ENCODED_BY/URL  : {URL for the technician or organization listed in ENCODED_BY.}
    ENCODED_BY/PROCESSING_ACTIONS: {Description of any actions performed during processing, such as trimming silence.}
    ENCODED_BY/CAPTURE_SOFTWARE: Blackmagic Media Express
    ENCODED_BY/CAPTURE_SOFTWARE/VERSION: 2.0.3
    ENCODED_BY/CAPTURE_OPERATING_SYSTEM: Ubuntu
    ENCODED_BY/CAPTURE_OPERATING_SYSTEM/VERSION: 10.10
    ENCODED_BY/CAPTURE_DEVICE: Decklink Studio SDI
    ENCODED_BY/CAPTURE_DEVICE/MANUFACTURER: Blackmagic-Design
    ENCODED_BY/CAPTURE_DEVICE/SERIAL_NO: xyz6789
    ENCODED_BY/CAPTURE_DEVICE/SETTINGS: {notes on adjustments or settings}
    ENCODED_BY/PLAYBACK_DEVICE: SVO-5800
    ENCODED_BY/PLAYBACK_DEVICE/MANUFACTURER: Sony
    ENCODED_BY/PLAYBACK_DEVICE/SERIAL_NO: abc1234
    ENCODED_BY/PLAYBACK_DEVICE/SETTINGS: {notes on adjustments or settings}
    ENCODED_BY/PLAYBACK_DEVICE/PLAYBACK_SIGNAL_PATH: {Protocols used to transfer audiovisual data between the playback deck and the capture device. example: Component}
    MAJOR_BRAND     : qt  
    ENCODER         : Lavf54.36.100
  Duration: 00:00:06.44, start: 0.000000, bitrate: 54085 kb/s
    Stream #0:0(eng): Video: ffv1 (FFV1 / 0x31564646), yuv422p, 720x486, SAR 9:10 DAR 4:3, 29.97 fps, 29.97 tbr, 1k tbn, 1k tbc (default)
    Metadata:
      CREATION_TIME   : 2011-05-03 02:12:03
      LANGUAGE        : eng
    Stream #0:1(eng): Audio: pcm_s24le, 48000 Hz, 1 channels, s32 (24 bit), 1152 kb/s (default)
    Metadata:
      CREATION_TIME   : 2011-05-03 02:12:03
      LANGUAGE        : eng
At least one output file must be specified